HIERARCHY
ROOT Hips
{
	OFFSET 0.000000 97.167313 0.000000
	CHANNELS 6 Xposition Yposition Zposition Xrotation Yrotation Zrotation
	JOINT Spine
	{
		OFFSET 0.000000 13.784798 0.064400
		CHANNELS 3 Xrotation Yrotation Zrotation
		JOINT Spine1
		{
			OFFSET 0.000000 12.037903 0.404700
			CHANNELS 3 Xrotation Yrotation Zrotation
			JOINT Spine2
			{
				OFFSET 0.000000 17.795601 0.420200
				CHANNELS 3 Xrotation Yrotation Zrotation
				JOINT Neck
				{
					OFFSET 0.000000 39.131302 11.954600
					CHANNELS 3 Xrotation Yrotation Zrotation
					JOINT Head
					{
						OFFSET 0.000000 14.456192 15.627699
						CHANNELS 3 Xrotation Yrotation Zrotation
						JOINT HeadTop_End
						{
							OFFSET 0.000000 15.703506 7.603401
							CHANNELS 3 Xrotation Yrotation Zrotation
							End Site
							{
								OFFSET 0.000000 17.447403 0.000000
							}
						}
					}
				}
				JOINT LeftShoulder
				{
					OFFSET 17.399500 24.608795 1.168800
					CHANNELS 3 Xrotation Yrotation Zrotation
					JOINT LeftArm
					{
						OFFSET 18.980635 5.765305 1.818600
						CHANNELS 3 Xrotation Yrotation Zrotation
						JOINT LeftForeArm
						{
							OFFSET 49.290169 0.000000 0.000000
							CHANNELS 3 Xrotation Yrotation Zrotation
							JOINT LeftHand
							{
								OFFSET 31.562012 0.000000 0.000000
								CHANNELS 3 Xrotation Yrotation Zrotation
								JOINT LeftHandThumb1
								{
									OFFSET 6.133995 -4.388519 7.076070
									CHANNELS 3 Xrotation Yrotation Zrotation
									JOINT LeftHandThumb2
									{
										OFFSET 6.037666 -3.485840 3.485847
										CHANNELS 3 Xrotation Yrotation Zrotation
										JOINT LeftHandThumb3
										{
											OFFSET 6.496506 -3.750763 3.750761
											CHANNELS 3 Xrotation Yrotation Zrotation
											JOINT LeftHandThumb4
											{
												OFFSET 5.616882 -3.242905 3.242910
												CHANNELS 3 Xrotation Yrotation Zrotation
												End Site
												{
													OFFSET -1.254608 7.132141 0.375429
												}
											}
										}
									}
								}
								JOINT LeftHandPinky1
								{
									OFFSET 18.920792 -0.453171 -11.426712
									CHANNELS 3 Xrotation Yrotation Zrotation
									JOINT LeftHandPinky2
									{
										OFFSET 4.919586 0.000000 0.000000
										CHANNELS 3 Xrotation Yrotation Zrotation
										JOINT LeftHandPinky3
										{
											OFFSET 5.233047 0.000000 0.000000
											CHANNELS 3 Xrotation Yrotation Zrotation
											JOINT LeftHandPinky4
											{
												OFFSET 5.571716 0.000000 0.000000
												CHANNELS 3 Xrotation Yrotation Zrotation
												End Site
												{
													OFFSET -3.459808 4.342407 -0.466164
												}
											}
										}
									}
								}
								JOINT LeftHandRing1
								{
									OFFSET 22.726120 -0.094986 -6.500475
									CHANNELS 3 Xrotation Yrotation Zrotation
									JOINT LeftHandRing2
									{
										OFFSET 6.408615 0.000000 0.000000
										CHANNELS 3 Xrotation Yrotation Zrotation
										JOINT LeftHandRing3
										{
											OFFSET 6.150223 0.000000 0.000000
											CHANNELS 3 Xrotation Yrotation Zrotation
											JOINT LeftHandRing4
											{
												OFFSET 6.145386 0.000000 0.000000
												CHANNELS 3 Xrotation Yrotation Zrotation
												End Site
												{
													OFFSET -3.671402 4.923981 -0.202372
												}
											}
										}
									}
								}
								JOINT LeftHandMiddle1
								{
									OFFSET 23.373947 0.000000 0.000001
									CHANNELS 3 Xrotation Yrotation Zrotation
									JOINT LeftHandMiddle2
									{
										OFFSET 6.996567 0.000000 0.000000
										CHANNELS 3 Xrotation Yrotation Zrotation
										JOINT LeftHandMiddle3
										{
											OFFSET 7.015945 0.000000 0.000000
											CHANNELS 3 Xrotation Yrotation Zrotation
											JOINT LeftHandMiddle4
											{
												OFFSET 7.721573 0.000000 0.000000
												CHANNELS 3 Xrotation Yrotation Zrotation
												End Site
												{
													OFFSET -4.651108 6.158463 0.251582
												}
											}
										}
									}
								}
								JOINT LeftHandIndex1
								{
									OFFSET 21.310577 -0.490082 6.209344
									CHANNELS 3 Xrotation Yrotation Zrotation
									JOINT LeftHandIndex2
									{
										OFFSET 7.536453 0.000000 0.000000
										CHANNELS 3 Xrotation Yrotation Zrotation
										JOINT LeftHandIndex3
										{
											OFFSET 7.512344 0.000000 0.000000
											CHANNELS 3 Xrotation Yrotation Zrotation
											JOINT LeftHandIndex4
											{
												OFFSET 10.212402 0.000000 0.000001
												CHANNELS 3 Xrotation Yrotation Zrotation
												End Site
												{
													OFFSET -5.180801 8.690506 1.388433
												}
											}
										}
									}
								}
							}
						}
					}
				}
				JOINT RightShoulder
				{
					OFFSET -17.399500 24.608795 1.168800
					CHANNELS 3 Xrotation Yrotation Zrotation
					JOINT RightArm
					{
						OFFSET -18.980635 5.765305 1.818600
						CHANNELS 3 Xrotation Yrotation Zrotation
						JOINT RightForeArm
						{
							OFFSET -49.290169 0.000000 0.000000
							CHANNELS 3 Xrotation Yrotation Zrotation
							JOINT RightHand
							{
								OFFSET -31.562012 0.000000 0.000000
								CHANNELS 3 Xrotation Yrotation Zrotation
								JOINT RightHandThumb1
								{
									OFFSET -6.133995 -4.388519 7.076070
									CHANNELS 3 Xrotation Yrotation Zrotation
									JOINT RightHandThumb2
									{
										OFFSET -6.037666 -3.485840 3.485847
										CHANNELS 3 Xrotation Yrotation Zrotation
										JOINT RightHandThumb3
										{
											OFFSET -6.496506 -3.750763 3.750761
											CHANNELS 3 Xrotation Yrotation Zrotation
											JOINT RightHandThumb4
											{
												OFFSET -5.616882 -3.242905 3.242910
												CHANNELS 3 Xrotation Yrotation Zrotation
												End Site
												{
													OFFSET 1.254608 7.132141 0.375429
												}
											}
										}
									}
								}
								JOINT RightHandIndex1
								{
									OFFSET -21.310577 -0.490082 6.209344
									CHANNELS 3 Xrotation Yrotation Zrotation
									JOINT RightHandIndex2
									{
										OFFSET -7.536453 0.000000 0.000000
										CHANNELS 3 Xrotation Yrotation Zrotation
										JOINT RightHandIndex3
										{
											OFFSET -7.512344 0.000000 0.000000
											CHANNELS 3 Xrotation Yrotation Zrotation
											JOINT RightHandIndex4
											{
												OFFSET -10.212402 0.000000 0.000001
												CHANNELS 3 Xrotation Yrotation Zrotation
												End Site
												{
													OFFSET 5.180801 8.690506 1.388433
												}
											}
										}
									}
								}
								JOINT RightHandMiddle1
								{
									OFFSET -23.373947 0.000000 0.000001
									CHANNELS 3 Xrotation Yrotation Zrotation
									JOINT RightHandMiddle2
									{
										OFFSET -6.996567 0.000000 0.000000
										CHANNELS 3 Xrotation Yrotation Zrotation
										JOINT RightHandMiddle3
										{
											OFFSET -7.015945 0.000000 0.000000
											CHANNELS 3 Xrotation Yrotation Zrotation
											JOINT RightHandMiddle4
											{
												OFFSET -7.721573 0.000000 0.000000
												CHANNELS 3 Xrotation Yrotation Zrotation
												End Site
												{
													OFFSET 4.651108 6.158463 0.251582
												}
											}
										}
									}
								}
								JOINT RightHandRing1
								{
									OFFSET -22.726120 -0.094986 -6.500475
									CHANNELS 3 Xrotation Yrotation Zrotation
									JOINT RightHandRing2
									{
										OFFSET -6.408615 0.000000 0.000000
										CHANNELS 3 Xrotation Yrotation Zrotation
										JOINT RightHandRing3
										{
											OFFSET -6.150223 0.000000 0.000000
											CHANNELS 3 Xrotation Yrotation Zrotation
											JOINT RightHandRing4
											{
												OFFSET -6.145386 0.000000 0.000000
												CHANNELS 3 Xrotation Yrotation Zrotation
												End Site
												{
													OFFSET 3.671402 4.923981 -0.202372
												}
											}
										}
									}
								}
								JOINT RightHandPinky1
								{
									OFFSET -18.920792 -0.453171 -11.426712
									CHANNELS 3 Xrotation Yrotation Zrotation
									JOINT RightHandPinky2
									{
										OFFSET -4.919586 0.000000 0.000000
										CHANNELS 3 Xrotation Yrotation Zrotation
										JOINT RightHandPinky3
										{
											OFFSET -5.233047 0.000000 0.000000
											CHANNELS 3 Xrotation Yrotation Zrotation
											JOINT RightHandPinky4
											{
												OFFSET -5.571716 0.000000 0.000000
												CHANNELS 3 Xrotation Yrotation Zrotation
												End Site
												{
													OFFSET 3.459808 4.342407 -0.466164
												}
											}
										}
									}
								}
							}
						}
					}
				}
			}
		}
	}
	JOINT LeftUpLeg
	{
		OFFSET 19.899099 -7.885101 -3.429500
		CHANNELS 3 Xrotation Yrotation Zrotation
		JOINT LeftLeg
		{
			OFFSET 1.745560 -36.997807 10.304700
			CHANNELS 3 Xrotation Yrotation Zrotation
			JOINT LeftFoot
			{
				OFFSET -1.745558 -29.803308 -13.615400
				CHANNELS 3 Xrotation Yrotation Zrotation
				JOINT LeftToeBase
				{
					OFFSET 1.181900 -18.539904 15.226099
					CHANNELS 3 Xrotation Yrotation Zrotation
					JOINT LeftToe_End
					{
						OFFSET -0.863701 1.402801 16.534700
						CHANNELS 3 Xrotation Yrotation Zrotation
						End Site
						{
							OFFSET 0.000000 16.616566 0.000000
						}
					}
				}
			}
		}
	}
	JOINT RightUpLeg
	{
		OFFSET -19.899099 -7.885101 -3.429500
		CHANNELS 3 Xrotation Yrotation Zrotation
		JOINT RightLeg
		{
			OFFSET -1.745560 -36.997807 10.304700
			CHANNELS 3 Xrotation Yrotation Zrotation
			JOINT RightFoot
			{
				OFFSET 1.745558 -29.803308 -13.615400
				CHANNELS 3 Xrotation Yrotation Zrotation
				JOINT RightToeBase
				{
					OFFSET -1.181900 -18.539904 15.226099
					CHANNELS 3 Xrotation Yrotation Zrotation
					JOINT RightToe_End
					{
						OFFSET 0.863701 1.402801 16.534700
						CHANNELS 3 Xrotation Yrotation Zrotation
						End Site
						{
							OFFSET 0.000000 16.616566 0.000000
						}
					}
				}
			}
		}
	}
}
MOTION
Frames: 4
Frame Time: 0.033333
-2.037274 71.666443 0.198524 15.600295 -53.696017 12.208257 7.436677 3.690267 -3.546718 1.209175 1.420674 2.325056 0.209259 1.298839 1.049734 -1.852112 9.789363 -1.570087 -3.710343 23.673082 -4.987620 0.000001 -0.000000 -0.000000 -2.416908 -9.914475 -4.105217 -4.668981 -14.995288 -46.826933 -96.668070 -58.172742 -94.771764 0.027004 -0.377061 -3.261900 4.766518 -0.870673 -14.442462 15.732330 12.674826 8.828576 63.207049 -8.275011 4.266027 0.000000 0.000001 -0.000001 -8.868655 8.263631 -85.753886 -0.047919 -0.066875 -74.105661 -0.018481 -0.051632 -48.548787 -0.000000 0.000001 -0.000004 -4.480778 3.914197 -90.412505 -1.097231 -0.675676 -62.310730 -0.104338 1.185552 -72.505873 -0.000001 0.000002 0.000007 -5.483662 2.419533 -86.651024 -0.068349 -4.897290 -76.605517 1.509521 0.538135 -67.243274 0.000000 -0.000001 0.000006 -3.610973 -7.817627 -81.262681 0.005159 -4.388527 -67.459101 1.852066 0.687178 -69.585837 -0.000001 0.000001 0.000003 -7.387816 -19.317436 2.804091 3.089079 2.300714 51.805107 -16.213727 73.879390 16.738292 -2.716636 27.655245 10.524484 24.918373 -21.323357 30.343040 9.041918 8.262095 -18.001799 -16.109836 -19.128882 -12.401655 -0.000000 -0.000003 0.000004 -0.070709 -3.035207 61.424233 0.006476 4.395154 66.609186 1.919195 -0.429148 59.456667 -0.000001 -0.000003 -0.000001 -1.235397 -0.119458 68.274270 -0.077307 4.902834 84.501912 0.918977 -1.334283 32.710268 0.000003 0.000003 -0.000008 0.883178 -4.613480 79.192963 -0.717765 1.136484 73.255773 -0.065380 -1.198570 39.144388 -0.000001 -0.000001 -0.000005 -3.944553 0.100010 86.764795 -0.029798 0.060130 54.415140 -0.007571 0.030585 25.829844 -0.000001 -0.000002 0.000005 -70.917854 18.172203 47.546893 43.389163 -16.213623 3.503620 11.514361 0.395605 -16.159997 -2.525222 -3.753842 4.098983 0.000000 -0.000000 0.000000 -26.566798 -19.874346 -46.675197 36.657813 7.562698 -1.327885 -12.783187 -10.423489 38.817485 -1.369721 0.621603 -0.987374 -0.000000 -0.000000 -0.000000 
-1.791562 71.137032 0.966350 15.351793 -52.783425 11.689083 7.629512 2.931105 -2.626947 0.876011 1.112344 1.932860 0.022804 1.008488 0.845369 -1.735976 9.203522 -1.583350 -3.866044 25.652543 -5.433721 -0.000000 0.000001 -0.000000 -2.044995 -8.911068 -5.069129 -7.874516 -10.247398 -46.120367 -88.042662 -56.712307 -88.236325 -1.096695 -1.800650 -4.863231 4.766517 -0.870674 -14.442462 15.732330 12.674826 8.828573 63.207056 -8.275008 4.266029 -0.000000 -0.000000 -0.000001 -8.868652 8.263630 -85.753886 -0.047920 -0.066879 -74.105667 -0.018484 -0.051632 -48.548783 -0.000000 0.000000 -0.000006 -4.480779 3.914198 -90.412505 -1.097229 -0.675677 -62.310737 -0.104337 1.185550 -72.505880 -0.000000 0.000001 0.000005 -5.483660 2.419534 -86.651031 -0.068348 -4.897291 -76.605510 1.509521 0.538135 -67.243288 -0.000000 -0.000001 0.000004 -3.610971 -7.817629 -81.262674 0.005163 -4.388525 -67.459094 1.852064 0.687177 -69.585837 0.000000 0.000001 0.000003 -5.568740 -15.076693 5.202193 5.375021 1.396499 50.387904 -22.396539 79.933615 23.339236 -1.042488 24.911570 6.615584 24.918371 -21.323361 30.343044 9.041915 8.262092 -18.001799 -16.109833 -19.128881 -12.401650 -0.000001 0.000000 0.000001 -0.070706 -3.035208 61.424233 0.006474 4.395150 66.609180 1.919192 -0.429152 59.456667 -0.000001 0.000000 0.000004 -1.235394 -0.119461 68.274270 -0.077309 4.902836 84.501919 0.918973 -1.334281 32.710271 0.000001 0.000000 -0.000001 0.883178 -4.613480 79.192956 -0.717762 1.136490 73.255766 -0.065387 -1.198567 39.144381 -0.000000 0.000002 -0.000003 -3.944553 0.100006 86.764795 -0.029798 0.060126 54.415144 -0.007571 0.030585 25.829844 -0.000001 0.000000 0.000001 -71.611077 17.161468 46.452561 45.154910 -17.849142 3.548971 10.661503 1.286987 -15.696333 -2.441871 -2.603327 2.871536 -0.000000 -0.000002 -0.000000 -26.549323 -21.222089 -47.694036 36.071861 8.005954 -1.477589 -12.482986 -10.352796 39.677529 -1.369725 0.621620 -0.987355 0.000000 0.000000 -0.000000 
-1.543163 70.677010 1.771040 15.381752 -51.027988 10.939549 7.636659 2.360407 -1.311886 0.424951 0.809328 1.544471 -0.259013 0.722982 0.672789 -2.013360 8.265471 -1.353386 -3.765444 27.320542 -6.432383 -0.000000 -0.000000 0.000000 -1.566262 -7.766491 -5.885437 -11.198563 -5.854804 -45.834613 -81.611369 -50.835988 -83.792972 -1.912008 -3.070947 -6.231262 4.766517 -0.870674 -14.442461 15.732332 12.674831 8.828574 63.207049 -8.275013 4.266028 -0.000000 0.000001 -0.000001 -8.868653 8.263630 -85.753879 -0.047916 -0.066873 -74.105661 -0.018485 -0.051632 -48.548776 0.000003 0.000001 0.000001 -4.480777 3.914195 -90.412512 -1.097229 -0.675674 -62.310737 -0.104337 1.185550 -72.505880 0.000000 0.000002 -0.000000 -5.483660 2.419533 -86.651024 -0.068351 -4.897292 -76.605517 1.509519 0.538139 -67.243281 -0.000002 0.000000 0.000008 -3.610971 -7.817631 -81.262688 0.005163 -4.388526 -67.459094 1.852065 0.687176 -69.585837 -0.000002 0.000003 0.000004 -3.779150 -10.083775 7.764702 4.709023 1.475191 48.107611 -33.491286 83.441634 34.559449 0.156419 21.756779 2.996271 24.918366 -21.323357 30.343040 9.041917 8.262092 -18.001802 -16.109833 -19.128881 -12.401655 0.000002 -0.000001 -0.000000 -0.070709 -3.035207 61.424233 0.006475 4.395149 66.609186 1.919194 -0.429150 59.456667 -0.000001 -0.000003 -0.000001 -1.235394 -0.119461 68.274270 -0.077309 4.902838 84.501919 0.918973 -1.334282 32.710264 0.000001 0.000001 -0.000001 0.883176 -4.613483 79.192963 -0.717763 1.136486 73.255773 -0.065393 -1.198567 39.144388 -0.000001 0.000002 -0.000003 -3.944555 0.100009 86.764795 -0.029799 0.060129 54.415147 -0.007569 0.030585 25.829842 -0.000000 0.000001 0.000002 -73.588847 16.173927 45.029972 46.428006 -22.403685 3.350592 10.699548 3.197671 -14.386344 -2.146097 0.876743 -0.835739 0.000000 0.000000 0.000000 -23.823966 -21.921086 -47.929350 34.497523 6.402747 0.225185 -12.117532 -10.606547 40.795405 -1.369717 0.621637 -0.987356 -0.000000 -0.000000 -0.000000 
-1.120568 70.613312 2.835293 14.711295 -47.905123 9.894532 7.648029 2.651034 -0.653228 -0.025438 0.782337 1.363458 -0.555172 0.709125 0.684561 -2.304692 6.663539 -1.008704 -3.259412 26.950468 -6.956936 0.000000 -0.000000 0.000000 -1.042871 -6.698098 -6.753957 -14.667674 -2.151729 -45.317827 -77.769517 -44.432085 -81.305780 -2.223591 -4.332836 -7.197700 4.766520 -0.870675 -14.442457 15.732330 12.674832 8.828572 63.207056 -8.275012 4.266026 -0.000001 -0.000000 -0.000002 -8.868656 8.263627 -85.753879 -0.047922 -0.066880 -74.105661 -0.018482 -0.051630 -48.548783 0.000004 -0.000003 0.000001 -4.480780 3.914193 -90.412498 -1.097229 -0.675674 -62.310737 -0.104341 1.185552 -72.505873 -0.000003 -0.000001 0.000001 -5.483659 2.419532 -86.651017 -0.068351 -4.897290 -76.605510 1.509521 0.538134 -67.243281 -0.000001 0.000000 -0.000001 -3.610970 -7.817632 -81.262674 0.005162 -4.388524 -67.459094 1.852064 0.687178 -69.585844 0.000001 0.000003 0.000002 -2.214845 -4.914425 10.399298 3.185004 1.933487 46.454026 -68.040248 85.599933 68.780586 0.879457 18.705802 -0.281782 24.918374 -21.323361 30.343040 9.041915 8.262092 -18.001799 -16.109836 -19.128877 -12.401654 -0.000001 -0.000001 0.000001 -0.070703 -3.035207 61.424233 0.006478 4.395154 66.609186 1.919192 -0.429153 59.456660 -0.000002 -0.000002 0.000001 -1.235392 -0.119460 68.274264 -0.077307 4.902841 84.501912 0.918974 -1.334284 32.710271 -0.000001 0.000003 -0.000011 0.883178 -4.613485 79.192956 -0.717762 1.136487 73.255773 -0.065389 -1.198567 39.144381 -0.000001 -0.000002 -0.000002 -3.944554 0.100007 86.764795 -0.029797 0.060127 54.415147 -0.007568 0.030580 25.829846 0.000003 -0.000002 0.000002 -74.161825 15.300399 43.738957 48.600313 -16.872135 2.941133 9.135439 3.317627 -11.629890 -2.130515 1.379165 -1.363551 -0.000000 0.000001 -0.000000 -18.824855 -23.403496 -48.216371 31.377957 3.289010 2.518509 -11.115072 -11.001871 42.575984 -1.369726 0.621599 -0.987349 -0.000000 -0.000000 -0.000000 
